<?xml version="1.0" encoding="UTF-8"?>
<svg xmlns="http://www.w3.org/2000/svg" xmlns:xlink="http://www.w3.org/1999/xlink" width="504pt" height="504pt" viewBox="0 0 504 504" version="1.1">
<g id="surface1">
<rect x="0" y="0" width="504" height="504" style="fill:rgb(100%,100%,100%);fill-opacity:1;stroke:none;"/>
<rect x="0" y="0" width="504" height="504" style="fill:rgb(100%,100%,100%);fill-opacity:1;stroke:none;"/>
<path style="fill:none;stroke-width:76200;stroke-linecap:butt;stroke-linejoin:miter;stroke:rgb(25.097656%,38.822937%,84.706116%);stroke-opacity:1;stroke-miterlimit:8;" d="M 22.145624 -12.7 L 2326304.883683 1417525.535889 " transform="matrix(-0.0000787402,0,0,0.0000787402,123.0994,341.876)"/>
<path style="fill:none;stroke-width:76200;stroke-linecap:butt;stroke-linejoin:miter;stroke:rgb(25.097656%,38.822937%,84.706116%);stroke-opacity:1;stroke-miterlimit:8;" d="M 19.684999 15.39875 L 23981.012358 3412148.102061 " transform="matrix(-0.0000787402,0,0,-0.0000787402,335.0953,382.4309)"/>
<path style="fill:none;stroke-width:76200;stroke-linecap:butt;stroke-linejoin:miter;stroke:rgb(25.097656%,38.822937%,84.706116%);stroke-opacity:1;stroke-miterlimit:8;" d="M 22.145624 -24.764999 L 2530993.158383 1677665.025065 " transform="matrix(-0.0000787402,0,0,-0.0000787402,123.0994,159.7168)"/>
<path style="fill:none;stroke-width:76200;stroke-linecap:butt;stroke-linejoin:miter;stroke:rgb(25.097656%,38.822937%,84.706116%);stroke-opacity:1;stroke-miterlimit:8;" d="M 24.764999 -11.350625 L 2943100.842696 1710470.235265 " transform="matrix(-0.0000787402,0,0,-0.0000787402,335.0957,386.6202)"/>
<path style="fill:none;stroke-width:76200;stroke-linecap:butt;stroke-linejoin:miter;stroke:rgb(25.097656%,38.822937%,84.706116%);stroke-opacity:1;stroke-miterlimit:8;" d="M -2.778125 -15.39875 L 2207167.854371 -15.39875 " transform="matrix(-0.0000787402,0,0,0.0000787402,596.199,250.9309)"/>
<path style="fill:none;stroke-width:76200;stroke-linecap:butt;stroke-linejoin:miter;stroke:rgb(25.097656%,38.822937%,84.706116%);stroke-opacity:1;stroke-miterlimit:8;" d="M 11.033125 16.430624 L 2911138.674344 1738279.265625 " transform="matrix(0.0000787402,0,0,-0.0000787402,103.3546,250.6302)"/>
<path style="fill-rule:nonzero;fill:rgb(25.097656%,38.822937%,84.706116%);fill-opacity:1;stroke-width:76200;stroke-linecap:butt;stroke-linejoin:miter;stroke:rgb(25.097656%,38.822937%,84.706116%);stroke-opacity:1;stroke-miterlimit:8;" d="M 10.017125 2774873.552454 C 10.017125 1242340.788995 1241683.024266 22.859999 2773422.03775 22.859999 C 4305111.441861 22.859999 5546834.058376 1242340.788995 5546834.058376 2774873.552454 C 5546834.058376 4307406.315913 4305111.441861 5549773.854282 2773422.03775 5549773.854282 C 1241683.024266 5549773.854282 10.017125 4307406.315913 10.017125 2774873.552454 Z M 125372.903738 2774873.552454 C 125372.903738 4238201.240003 1310937.70955 5424410.967669 2773422.03775 5424410.967669 C 4235906.365951 5424410.967669 5421471.171763 4238201.240003 5421471.171763 2774873.552454 C 5421471.171763 1311595.474279 4235906.365951 125336.137239 2773422.03775 125336.137239 C 1310937.70955 125336.137239 125372.903738 1311595.474279 125372.903738 2774873.552454 Z M 125372.903738 2774873.552454 " transform="matrix(0.0000787402,0,0,0.0000787402,35.72968,32.4357)"/>
<path style=" stroke:none;fill-rule:evenodd;fill:rgb(79.608154%,23.529053%,19.999695%);fill-opacity:1;" d="M 123.097656 291.058594 L 247.785156 291.058594 L 247.785156 316.46875 L 123.097656 316.46875 Z M 123.097656 291.058594 "/>
<path style=" stroke:none;fill-rule:evenodd;fill:rgb(79.608154%,23.529053%,19.999695%);fill-opacity:1;" d="M 123.097656 316.46875 L 247.785156 316.46875 L 247.785156 341.875 L 123.097656 341.875 Z M 123.097656 316.46875 "/>
<path style=" stroke:none;fill-rule:evenodd;fill:rgb(79.608154%,23.529053%,19.999695%);fill-opacity:1;" d="M 123.097656 341.875 L 247.785156 341.875 L 247.785156 367.285156 L 123.097656 367.285156 Z M 123.097656 341.875 "/>
<path style=" stroke:none;fill-rule:evenodd;fill:rgb(79.608154%,23.529053%,19.999695%);fill-opacity:1;" d="M 123.097656 367.285156 L 247.785156 367.285156 L 247.785156 392.691406 L 123.097656 392.691406 Z M 123.097656 367.285156 "/>
<path style="fill:none;stroke-width:76200;stroke-linecap:butt;stroke-linejoin:round;stroke:rgb(12.548828%,12.548828%,12.548828%);stroke-opacity:1;stroke-miterlimit:10;" d="M -38123.414405 322700.004674 L 1621607.782484 322700.004674 " transform="matrix(0.0000787402,0,0,0.0000787402,123.0995,291.0593)"/>
<path style="fill:none;stroke-width:76200;stroke-linecap:butt;stroke-linejoin:round;stroke:rgb(12.548828%,12.548828%,12.548828%);stroke-opacity:1;stroke-miterlimit:10;" d="M -38123.414405 645359.369348 L 1621607.782484 645359.369348 " transform="matrix(0.0000787402,0,0,0.0000787402,123.0995,291.0593)"/>
<path style="fill:none;stroke-width:76200;stroke-linecap:butt;stroke-linejoin:round;stroke:rgb(12.548828%,12.548828%,12.548828%);stroke-opacity:1;stroke-miterlimit:10;" d="M -38123.414405 968068.343397 L 1621607.782484 968068.343397 " transform="matrix(0.0000787402,0,0,0.0000787402,123.0995,291.0593)"/>
<path style="fill:none;stroke-width:76200;stroke-linecap:butt;stroke-linejoin:round;stroke:rgb(12.548828%,12.548828%,12.548828%);stroke-opacity:1;stroke-miterlimit:10;" d="M -23.415624 -38108.968156 L -23.415624 1328827.706853 " transform="matrix(0.0000787402,0,0,0.0000787402,123.0995,291.0593)"/>
<path style="fill:none;stroke-width:76200;stroke-linecap:butt;stroke-linejoin:round;stroke:rgb(12.548828%,12.548828%,12.548828%);stroke-opacity:1;stroke-miterlimit:10;" d="M 1583507.783703 -38108.968156 L 1583507.783703 1328827.706853 " transform="matrix(0.0000787402,0,0,0.0000787402,123.0995,291.0593)"/>
<path style="fill:none;stroke-width:76200;stroke-linecap:butt;stroke-linejoin:round;stroke:rgb(12.548828%,12.548828%,12.548828%);stroke-opacity:1;stroke-miterlimit:10;" d="M -38123.414405 -8.969375 L 1621607.782484 -8.969375 " transform="matrix(0.0000787402,0,0,0.0000787402,123.0995,291.0593)"/>
<path style="fill:none;stroke-width:76200;stroke-linecap:butt;stroke-linejoin:round;stroke:rgb(12.548828%,12.548828%,12.548828%);stroke-opacity:1;stroke-miterlimit:10;" d="M -38123.414405 1290727.708072 L 1621607.782484 1290727.708072 " transform="matrix(0.0000787402,0,0,0.0000787402,123.0995,291.0593)"/>
<path style=" stroke:none;fill-rule:evenodd;fill:rgb(58.432007%,34.509277%,69.804382%);fill-opacity:1;" d="M 297.722656 200.113281 L 422.40625 200.113281 L 422.40625 225.523438 L 297.722656 225.523438 Z M 297.722656 200.113281 "/>
<path style=" stroke:none;fill-rule:evenodd;fill:rgb(58.432007%,34.509277%,69.804382%);fill-opacity:1;" d="M 297.722656 225.523438 L 422.40625 225.523438 L 422.40625 250.929688 L 297.722656 250.929688 Z M 297.722656 225.523438 "/>
<path style=" stroke:none;fill-rule:evenodd;fill:rgb(58.432007%,34.509277%,69.804382%);fill-opacity:1;" d="M 297.722656 250.929688 L 422.40625 250.929688 L 422.40625 276.339844 L 297.722656 276.339844 Z M 297.722656 250.929688 "/>
<path style=" stroke:none;fill-rule:evenodd;fill:rgb(58.432007%,34.509277%,69.804382%);fill-opacity:1;" d="M 297.722656 276.339844 L 422.40625 276.339844 L 422.40625 301.746094 L 297.722656 301.746094 Z M 297.722656 276.339844 "/>
<path style="fill:none;stroke-width:76200;stroke-linecap:butt;stroke-linejoin:round;stroke:rgb(12.548828%,12.548828%,12.548828%);stroke-opacity:1;stroke-miterlimit:10;" d="M -38098.014406 322697.305924 L 1621583.573109 322697.305924 " transform="matrix(0.0000787402,0,0,0.0000787402,297.7225,200.1142)"/>
<path style="fill:none;stroke-width:76200;stroke-linecap:butt;stroke-linejoin:round;stroke:rgb(12.548828%,12.548828%,12.548828%);stroke-opacity:1;stroke-miterlimit:10;" d="M -38098.014406 645356.670599 L 1621583.573109 645356.670599 " transform="matrix(0.0000787402,0,0,0.0000787402,297.7225,200.1142)"/>
<path style="fill:none;stroke-width:76200;stroke-linecap:butt;stroke-linejoin:round;stroke:rgb(12.548828%,12.548828%,12.548828%);stroke-opacity:1;stroke-miterlimit:10;" d="M -38098.014406 968065.644647 L 1621583.573109 968065.644647 " transform="matrix(0.0000787402,0,0,0.0000787402,297.7225,200.1142)"/>
<path style="fill:none;stroke-width:76200;stroke-linecap:butt;stroke-linejoin:round;stroke:rgb(12.548828%,12.548828%,12.548828%);stroke-opacity:1;stroke-miterlimit:10;" d="M 1.984375 -38111.666905 L 1.984375 1328825.008103 " transform="matrix(0.0000787402,0,0,0.0000787402,297.7225,200.1142)"/>
<path style="fill:none;stroke-width:76200;stroke-linecap:butt;stroke-linejoin:round;stroke:rgb(12.548828%,12.548828%,12.548828%);stroke-opacity:1;stroke-miterlimit:10;" d="M 1583483.574329 -38111.666905 L 1583483.574329 1328825.008103 " transform="matrix(0.0000787402,0,0,0.0000787402,297.7225,200.1142)"/>
<path style="fill:none;stroke-width:76200;stroke-linecap:butt;stroke-linejoin:round;stroke:rgb(12.548828%,12.548828%,12.548828%);stroke-opacity:1;stroke-miterlimit:10;" d="M -38098.014406 -11.668125 L 1621583.573109 -11.668125 " transform="matrix(0.0000787402,0,0,0.0000787402,297.7225,200.1142)"/>
<path style="fill:none;stroke-width:76200;stroke-linecap:butt;stroke-linejoin:round;stroke:rgb(12.548828%,12.548828%,12.548828%);stroke-opacity:1;stroke-miterlimit:10;" d="M -38098.014406 1290725.009322 L 1621583.573109 1290725.009322 " transform="matrix(0.0000787402,0,0,0.0000787402,297.7225,200.1142)"/>
<path style="fill-rule:nonzero;fill:rgb(25.097656%,38.822937%,84.706116%);fill-opacity:1;stroke-width:12700;stroke-linecap:butt;stroke-linejoin:miter;stroke:rgb(25.097656%,38.822937%,84.706116%);stroke-opacity:1;stroke-miterlimit:8;" d="M 21.351874 206038.602157 C 21.351874 92234.699548 92195.567675 10.874375 205949.86091 10.874375 C 319654.544771 10.874375 411878.369945 92234.699548 411878.369945 206038.602157 C 411878.369945 319842.504765 319654.544771 412066.329939 205949.86091 412066.329939 C 92195.567675 412066.329939 21.351874 319842.504765 21.351874 206038.602157 Z M 21.351874 206038.602157 " transform="matrix(0.0000787402,0,0,0.0000787402,316.3616,97.5343)"/>
<path style=" stroke:none;fill-rule:evenodd;fill:rgb(21.960449%,59.608459%,14.901733%);fill-opacity:1;" d="M 123.097656 108.898438 L 247.785156 108.898438 L 247.785156 134.308594 L 123.097656 134.308594 Z M 123.097656 108.898438 "/>
<path style=" stroke:none;fill-rule:evenodd;fill:rgb(21.960449%,59.608459%,14.901733%);fill-opacity:1;" d="M 123.097656 134.308594 L 247.785156 134.308594 L 247.785156 159.71875 L 123.097656 159.71875 Z M 123.097656 134.308594 "/>
<path style=" stroke:none;fill-rule:evenodd;fill:rgb(21.960449%,59.608459%,14.901733%);fill-opacity:1;" d="M 123.097656 159.71875 L 247.785156 159.71875 L 247.785156 185.125 L 123.097656 185.125 Z M 123.097656 159.71875 "/>
<path style=" stroke:none;fill-rule:evenodd;fill:rgb(21.960449%,59.608459%,14.901733%);fill-opacity:1;" d="M 123.097656 185.125 L 247.785156 185.125 L 247.785156 210.535156 L 123.097656 210.535156 Z M 123.097656 185.125 "/>
<path style="fill:none;stroke-width:76200;stroke-linecap:butt;stroke-linejoin:round;stroke:rgb(12.548828%,12.548828%,12.548828%);stroke-opacity:1;stroke-miterlimit:10;" d="M -38123.414405 322686.590299 L 1621607.782484 322686.590299 " transform="matrix(0.0000787402,0,0,0.0000787402,123.0995,108.9002)"/>
<path style="fill:none;stroke-width:76200;stroke-linecap:butt;stroke-linejoin:round;stroke:rgb(12.548828%,12.548828%,12.548828%);stroke-opacity:1;stroke-miterlimit:10;" d="M -38123.414405 645395.564347 L 1621607.782484 645395.564347 " transform="matrix(0.0000787402,0,0,0.0000787402,123.0995,108.9002)"/>
<path style="fill:none;stroke-width:76200;stroke-linecap:butt;stroke-linejoin:round;stroke:rgb(12.548828%,12.548828%,12.548828%);stroke-opacity:1;stroke-miterlimit:10;" d="M -38123.414405 968054.929022 L 1621607.782484 968054.929022 " transform="matrix(0.0000787402,0,0,0.0000787402,123.0995,108.9002)"/>
<path style="fill:none;stroke-width:76200;stroke-linecap:butt;stroke-linejoin:round;stroke:rgb(12.548828%,12.548828%,12.548828%);stroke-opacity:1;stroke-miterlimit:10;" d="M -23.415624 -38122.38253 L -23.415624 1328863.901851 " transform="matrix(0.0000787402,0,0,0.0000787402,123.0995,108.9002)"/>
<path style="fill:none;stroke-width:76200;stroke-linecap:butt;stroke-linejoin:round;stroke:rgb(12.548828%,12.548828%,12.548828%);stroke-opacity:1;stroke-miterlimit:10;" d="M 1583507.783703 -38122.38253 L 1583507.783703 1328863.901851 " transform="matrix(0.0000787402,0,0,0.0000787402,123.0995,108.9002)"/>
<path style="fill:none;stroke-width:76200;stroke-linecap:butt;stroke-linejoin:round;stroke:rgb(12.548828%,12.548828%,12.548828%);stroke-opacity:1;stroke-miterlimit:10;" d="M -38123.414405 -22.383749 L 1621607.782484 -22.383749 " transform="matrix(0.0000787402,0,0,0.0000787402,123.0995,108.9002)"/>
<path style="fill:none;stroke-width:76200;stroke-linecap:butt;stroke-linejoin:round;stroke:rgb(12.548828%,12.548828%,12.548828%);stroke-opacity:1;stroke-miterlimit:10;" d="M -38123.414405 1290763.903071 L 1621607.782484 1290763.903071 " transform="matrix(0.0000787402,0,0,0.0000787402,123.0995,108.9002)"/>
<path style="fill-rule:nonzero;fill:rgb(25.097656%,38.822937%,84.706116%);fill-opacity:1;stroke-width:12700;stroke-linecap:butt;stroke-linejoin:miter;stroke:rgb(25.097656%,38.822937%,84.706116%);stroke-opacity:1;stroke-miterlimit:8;" d="M -11.350625 206055.588406 C -11.350625 92251.685798 92212.474549 -21.748749 205917.158411 -21.748749 C 319671.451646 -21.748749 411895.276819 92251.685798 411895.276819 206055.588406 C 411895.276819 319809.881641 319671.451646 412083.316188 205917.158411 412083.316188 C 92212.474549 412083.316188 -11.350625 319809.881641 -11.350625 206055.588406 Z M -11.350625 206055.588406 " transform="matrix(0.0000787402,0,0,0.0000787402,318.8798,369.2439)"/>
<path style="fill-rule:nonzero;fill:rgb(25.097656%,38.822937%,84.706116%);fill-opacity:1;stroke-width:12700;stroke-linecap:butt;stroke-linejoin:miter;stroke:rgb(25.097656%,38.822937%,84.706116%);stroke-opacity:1;stroke-miterlimit:8;" d="M 23.050499 206040.665907 C 23.050499 92236.763298 92197.2663 12.938125 205951.559535 12.938125 C 319656.243396 12.938125 411880.06857 92236.763298 411880.06857 206040.665907 C 411880.06857 319844.568515 319656.243396 412068.393689 205951.559535 412068.393689 C 92197.2663 412068.393689 23.050499 319844.568515 23.050499 206040.665907 Z M 23.050499 206040.665907 " transform="matrix(0.0000787402,0,0,0.0000787402,87.13881,234.5732)"/>
</g>
</svg>
